<mxfile host="app.diagrams.net" modified="2024-01-17T19:38:38.404Z" agent="Mozilla/5.0 (X11; Linux x86_64) AppleWebKit/537.36 (KHTML, like Gecko) Chrome/120.0.0.0 Safari/537.36" version="22.1.21" etag="HN9vbwYGsyRPMilc2Yej" type="github">
  <diagram name="Page-1" id="qx1WPMe-avSlTywzcC9_">
    <mxGraphModel>
      <root>
        <mxCell id="0" />
        <mxCell id="1" parent="0" />
      </root>
    </mxGraphModel>
  </diagram>
</mxfile>
